<svg width="751" height="104" viewBox="0 0 751 104" fill="none" xmlns="http://www.w3.org/2000/svg">
<path d="M595.683 90.3448V14.0536H646.895V27.12H611.489V45.666H644.26V58.7324H611.489V77.2784H647V90.3448H595.683Z" fill="white"/>
<path d="M546.894 90.3448H520.023V14.0536H547.21C570.182 14.0536 584.196 28.3845 584.196 52.0938C584.196 76.0139 570.182 90.3448 546.894 90.3448ZM535.829 76.7515H546.261C560.803 76.7515 568.39 69.1645 568.39 52.0938C568.39 35.1285 560.803 27.6469 546.367 27.6469H535.829V76.7515Z" fill="white"/>
<path d="M508.644 52.1994C508.644 77.0678 493.154 91.3987 473.027 91.3987C452.69 91.3987 437.305 76.9624 437.305 52.1994C437.305 27.3309 452.69 13 473.027 13C493.154 13 508.644 27.3309 508.644 52.1994ZM492.521 52.1994C492.521 35.8663 484.829 27.0148 473.027 27.0148C461.225 27.0148 453.427 35.8663 453.427 52.1994C453.427 68.5324 461.225 52.1994 473.027 52.1994C484.829 52.1994 492.521 68.5324 492.521 52.1994Z" fill="white"/>
<path d="M411.698 40.6082C410.434 32.1782 403.901 27.0148 395.049 27.0148C383.142 27.0148 375.344 36.1824 375.344 52.1994C375.344 68.6378 383.247 77.3839 394.944 77.3839C403.69 77.3839 410.118 72.5367 411.698 64.3174L427.715 64.4228C425.924 78.543 414.122 91.3987 394.733 91.3987C374.29 91.3987 359.222 77.0678 359.222 52.1994C359.222 27.3309 374.607 13 394.733 13C412.331 13 425.608 23.116 427.715 40.6082H411.698Z" fill="white"/>
<path d="M297.157 90.3448V14.0536H348.369V27.12H312.963V45.666H345.734V58.7324H312.963V77.2784H348.474V90.3448H297.157Z" fill="white"/>
<path d="M225.607 90.3448V14.0536H241.413V47.8789H242.467L270.18 14.0536H289.253L260.802 48.195L289.569 90.3448H270.602L249.421 58.8378L241.413 68.5323V90.3448H225.607Z" fill="white"/>
<path d="M160.907 90.3448H143.837L170.286 14.0536H190.623L216.967 90.3448H200.001L194.311 72.7473H166.703L160.907 90.3448ZM170.707 60.4184H190.307L180.718 31.2297H180.191L170.707 60.4184Z" fill="white"/>
<path d="M70.4956 90.3448V14.0536H86.3018V45.666H119.389V14.0536H135.301V90.3448H119.389V58.7324H86.3018V90.3448H70.4956Z" fill="white"/>
<path d="M43.9412 35.8663C43.309 29.8599 38.4617 26.2772 30.7694 26.2772C22.7609 26.2772 18.3352 29.9653 18.2298 35.0233C18.1244 40.5028 23.92 43.0318 30.4533 44.507L37.3026 46.193C50.3691 49.1435 60.1689 55.7821 60.1689 68.5324C60.1689 82.5472 49.2099 91.3987 30.664 91.3987C12.2235 91.3987 0.421498 82.8634 0 66.5303H15.3847C15.9116 74.2227 22.0233 78.1215 30.4533 78.1215C38.7779 78.1215 44.152 74.2227 44.152 68.5324C44.152 63.3691 39.4101 60.9455 31.0855 58.838L22.7609 56.8358C9.90521 53.6746 2.00212 47.2467 2.00212 36.077C2.00212 22.1676 14.2256 13 30.8748 13C47.7347 13 58.9044 22.3783 59.1152 35.8663H43.9412Z" fill="white"/>
<path d="M706.2 48.3556H687L699.8 0H741.756L727.533 34.1333L706.2 48.3556Z" fill="white"/>
<path d="M698.378 103.822L709.756 55.4662L731.089 39.8218H751L698.378 103.822Z" fill="white"/>
</svg>
