<svg width="29" height="29" viewBox="0 0 29 29" fill="none" xmlns="http://www.w3.org/2000/svg">
<path d="M11 3.17543C13.1658 1.925 15.8342 1.925 18 3.17543L22.5574 5.80662C24.7232 7.05705 26.0574 9.36794 26.0574 11.8688V17.1312C26.0574 19.6321 24.7232 21.9429 22.5574 23.1934L18 25.8246C15.8342 27.075 13.1658 27.075 11 25.8246L6.44263 23.1934C4.27682 21.9429 2.94263 19.6321 2.94263 17.1312V11.8688C2.94263 9.36794 4.27682 7.05705 6.44263 5.80662L11 3.17543Z" stroke="white" stroke-width="2"/>
<path d="M17.0155 12.6118C16.7977 11.3482 15.781 10.6221 14.503 10.6221C12.7747 10.6221 11.5693 11.9437 11.5693 14.3255C11.5693 16.7364 12.7892 18.0289 14.503 18.0289C15.752 18.0289 16.7686 17.3318 17.0155 16.0973H18.918C18.6276 18.1161 16.9719 19.7281 14.4739 19.7281C11.7 19.7281 9.66675 17.7094 9.66675 14.3255C9.66675 10.9271 11.729 8.92285 14.4739 8.92285C16.7977 8.92285 18.5985 10.2735 18.918 12.6118H17.0155Z" fill="white"/>
</svg>
