<svg width="44" height="49" viewBox="0 0 44 49" fill="none" xmlns="http://www.w3.org/2000/svg">
<path d="M22 30.3125V35.0625M10.125 19.6934C11.2446 19.625 12.6249 19.625 14.4 19.625H29.6C31.3751 19.625 32.7554 19.625 33.875 19.6934M10.125 19.6934C8.72774 19.7787 7.73644 19.9706 6.89032 20.4016C5.54966 21.0847 4.45968 22.1746 3.77658 23.5153C3 25.0395 3 27.0345 3 31.025V34.35C3 38.3405 3 40.3355 3.77658 41.8598C4.45968 43.2004 5.54966 44.2903 6.89032 44.9734C8.41443 45.75 10.4096 45.75 14.4 45.75H29.6C33.5905 45.75 35.5855 45.75 37.1097 44.9734C38.4504 44.2903 39.5403 43.2004 40.2234 41.8598C41 40.3355 41 38.3405 41 34.35V31.025C41 27.0345 41 25.0395 40.2234 23.5153C39.5403 22.1746 38.4504 21.0847 37.1097 20.4016C36.2635 19.9706 35.2722 19.7787 33.875 19.6934M10.125 19.6934V14.875C10.125 8.31663 15.4416 3 22 3C28.5583 3 33.875 8.31663 33.875 14.875V19.6934" stroke="white" stroke-width="5" stroke-linecap="round" stroke-linejoin="round"/>
</svg>
